#define 8c407b8fabde4661ec7eaeb6c6a00084QPRdBbJcqZKHgsx9_width 128
#define 8c407b8fabde4661ec7eaeb6c6a00084QPRdBbJcqZKHgsx9_height 128
static char 8c407b8fabde4661ec7eaeb6c6a00084QPRdBbJcqZKHgsx9_bits[] = {
  0x00, 0x00, 0x00, 0x00, 0x00, 0x00, 0x40, 0xFF, 0xFF, 0x00, 0x00, 0x00, 
  0x00, 0x00, 0x00, 0x00, 0x00, 0x00, 0x00, 0x00, 0x00, 0x00, 0xFE, 0x63, 
  0xEA, 0x3F, 0x00, 0x00, 0x00, 0x00, 0x00, 0x00, 0x00, 0x00, 0x00, 0x00, 
  0x00, 0x80, 0x1F, 0x00, 0x00, 0xF8, 0x03, 0x00, 0x00, 0x00, 0x00, 0x00, 
  0x00, 0x00, 0x00, 0x00, 0x00, 0xF8, 0x00, 0x00, 0x00, 0x00, 0x1F, 0x00, 
  0x00, 0x00, 0x00, 0x00, 0x00, 0x00, 0x00, 0x00, 0x00, 0x1F, 0x00, 0x82, 
  0x06, 0x00, 0xF8, 0x00, 0x00, 0x00, 0x00, 0x00, 0x00, 0x00, 0x00, 0x00, 
  0xC0, 0x01, 0xC0, 0x21, 0xC1, 0x07, 0x80, 0x03, 0x00, 0x00, 0x00, 0x00, 
  0x00, 0x00, 0x00, 0x00, 0x70, 0x00, 0x06, 0x00, 0x00, 0x62, 0x00, 0x0E, 
  0x00, 0x00, 0x00, 0x00, 0x00, 0x00, 0x00, 0x00, 0x1C, 0xC0, 0x01, 0x00, 
  0x00, 0x00, 0x03, 0x38, 0x00, 0x00, 0x00, 0x00, 0x00, 0x00, 0x00, 0x00, 
  0x07, 0x00, 0x00, 0x00, 0x00, 0x00, 0x00, 0xE0, 0x00, 0x00, 0x00, 0x00, 
  0x00, 0x00, 0x00, 0xC0, 0x03, 0x07, 0x00, 0x00, 0x00, 0x00, 0x40, 0x80, 
  0x03, 0x00, 0x00, 0x00, 0x00, 0x00, 0x00, 0x60, 0xC0, 0x00, 0x00, 0x00, 
  0x00, 0x00, 0x80, 0x07, 0x07, 0x00, 0x00, 0x00, 0x00, 0x00, 0x00, 0x38, 
  0x00, 0x00, 0x00, 0x00, 0x00, 0x00, 0x00, 0x00, 0x1C, 0x00, 0x00, 0x00, 
  0x00, 0x00, 0x00, 0x1C, 0x00, 0x00, 0x00, 0x00, 0x00, 0x00, 0x00, 0x20, 
  0x30, 0x00, 0x00, 0x00, 0x00, 0x00, 0x00, 0x07, 0x03, 0x00, 0x00, 0x00, 
  0x00, 0x00, 0x00, 0x40, 0xE0, 0x00, 0x00, 0x00, 0x00, 0x00, 0x80, 0x83, 
  0x00, 0x00, 0x00, 0x00, 0x00, 0x00, 0x00, 0x80, 0xC1, 0x01, 0x00, 0x00, 
  0x00, 0x00, 0xC0, 0x00, 0x00, 0x00, 0x00, 0x00, 0x00, 0x00, 0x00, 0x00, 
  0x02, 0x03, 0x00, 0x00, 0x00, 0x00, 0x60, 0x00, 0x00, 0x00, 0x00, 0x00, 
  0x00, 0x00, 0x00, 0x00, 0x00, 0x06, 0x00, 0x00, 0x00, 0x00, 0x30, 0x08, 
  0x00, 0x00, 0x00, 0x00, 0x00, 0x00, 0x00, 0x00, 0x10, 0x0C, 0x00, 0x00, 
  0x00, 0x00, 0x18, 0x0C, 0x00, 0x00, 0x00, 0x00, 0x00, 0x00, 0x00, 0x00, 
  0x20, 0x18, 0x00, 0x00, 0x00, 0x00, 0x0C, 0x03, 0x00, 0x00, 0x00, 0x00, 
  0x00, 0x00, 0x00, 0x00, 0xC0, 0x30, 0x00, 0x00, 0x00, 0x00, 0x06, 0x00, 
  0x00, 0x00, 0x00, 0x00, 0x00, 0x00, 0x00, 0x00, 0x00, 0x60, 0x00, 0x00, 
  0x00, 0x00, 0x03, 0x00, 0x00, 0x00, 0x00, 0x00, 0x00, 0x00, 0x00, 0x00, 
  0x00, 0xC0, 0x00, 0x00, 0x00, 0x80, 0x01, 0x00, 0x00, 0x00, 0x00, 0x00, 
  0x00, 0x00, 0x00, 0x00, 0x00, 0x80, 0x01, 0x00, 0x00, 0xC0, 0x30, 0x00, 
  0x00, 0x00, 0x00, 0x00, 0x00, 0x00, 0x00, 0x00, 0x00, 0x0C, 0x03, 0x00, 
  0x00, 0x40, 0x10, 0x00, 0x00, 0x00, 0x00, 0x00, 0x00, 0x00, 0x00, 0x00, 
  0x00, 0x08, 0x02, 0x00, 0x00, 0x60, 0x08, 0x00, 0x00, 0x00, 0x00, 0x00, 
  0x00, 0x00, 0x00, 0x00, 0x00, 0x10, 0x06, 0x00, 0x00, 0x30, 0x00, 0x00, 
  0x00, 0x00, 0x00, 0x00, 0x00, 0x00, 0x00, 0x00, 0x00, 0x20, 0x0C, 0x00, 
  0x00, 0x18, 0x00, 0x00, 0x00, 0x00, 0x00, 0x00, 0x00, 0x00, 0x00, 0x00, 
  0x00, 0x00, 0x18, 0x00, 0x00, 0x08, 0x00, 0x00, 0x00, 0x00, 0x00, 0x00, 
  0x00, 0x00, 0x00, 0x00, 0x00, 0x00, 0x18, 0x00, 0x00, 0x8C, 0x01, 0x00, 
  0x00, 0x00, 0x00, 0x00, 0x00, 0x00, 0x00, 0x00, 0x00, 0x80, 0x30, 0x00, 
  0x00, 0x86, 0x00, 0x00, 0x00, 0x00, 0x00, 0x00, 0x00, 0x00, 0x00, 0xC0, 
  0x00, 0x00, 0x61, 0x00, 0x00, 0x46, 0x00, 0x00, 0x00, 0x00, 0x00, 0x00, 
  0x00, 0x00, 0x00, 0xF0, 0x01, 0x00, 0x42, 0x00, 0x00, 0x23, 0x00, 0x00, 
  0x00, 0x00, 0x00, 0x00, 0x00, 0x00, 0x00, 0xFC, 0x01, 0x00, 0xC2, 0x00, 
  0x00, 0x01, 0x00, 0x00, 0x00, 0x00, 0x00, 0x00, 0x00, 0x00, 0x00, 0xFF, 
  0x01, 0x00, 0x84, 0x00, 0x80, 0x01, 0x00, 0x00, 0x00, 0x00, 0x00, 0x00, 
  0x00, 0x00, 0xC0, 0xFF, 0x01, 0x00, 0x80, 0x01, 0x80, 0x10, 0x00, 0x00, 
  0x40, 0x00, 0x00, 0x00, 0x00, 0x00, 0xE0, 0xEF, 0x01, 0x00, 0x00, 0x01, 
  0xC0, 0x08, 0x00, 0x00, 0xE0, 0x0F, 0x00, 0x00, 0x00, 0x00, 0xF8, 0xFF, 
  0x00, 0x00, 0x10, 0x03, 0x40, 0x08, 0x00, 0x00, 0xE0, 0x7F, 0x00, 0x00, 
  0x00, 0x00, 0xFC, 0xFF, 0x00, 0x00, 0x10, 0x02, 0x60, 0x08, 0x00, 0x00, 
  0xF8, 0xFF, 0x01, 0x00, 0x00, 0x00, 0xFF, 0xFF, 0x00, 0x00, 0x20, 0x06, 
  0x20, 0x04, 0x00, 0x00, 0xF8, 0xFF, 0x0F, 0x00, 0x00, 0x80, 0xFF, 0x7F, 
  0x00, 0x00, 0x20, 0x04, 0x30, 0x00, 0x00, 0x00, 0xFC, 0xFF, 0x7F, 0x00, 
  0x00, 0xC0, 0xFF, 0x7F, 0x00, 0x00, 0x00, 0x0C, 0x30, 0x00, 0x00, 0x00, 
  0xFE, 0xFF, 0xFF, 0x01, 0x00, 0xE0, 0xFF, 0x3F, 0x00, 0x00, 0x00, 0x0C, 
  0x10, 0x00, 0x00, 0x00, 0xFE, 0xFF, 0xFF, 0x07, 0x00, 0xF0, 0xFF, 0x3F, 
  0x00, 0x00, 0x00, 0x08, 0x18, 0x01, 0x00, 0x00, 0xF8, 0xFF, 0xFF, 0x3F, 
  0x00, 0xF8, 0xFF, 0x1F, 0x00, 0x00, 0x80, 0x18, 0x18, 0x01, 0x00, 0x00, 
  0xF0, 0xBF, 0xFF, 0xFE, 0x03, 0xFC, 0xFF, 0x1F, 0x00, 0x00, 0x00, 0x18, 
  0x08, 0x00, 0x00, 0x00, 0xC0, 0xFF, 0xFF, 0xF7, 0x1F, 0xFE, 0xFF, 0x0F, 
  0x00, 0x00, 0x80, 0x10, 0x8C, 0x00, 0x00, 0x00, 0xC0, 0xFF, 0xFF, 0xFF, 
  0xFF, 0xFE, 0xFF, 0x07, 0x00, 0x00, 0x00, 0x31, 0x8C, 0x00, 0x00, 0x00, 
  0x00, 0xFF, 0xFF, 0xFF, 0xFF, 0xFF, 0xFF, 0x07, 0x00, 0x00, 0x00, 0x31, 
  0x04, 0x00, 0x00, 0x00, 0x00, 0xFE, 0xFF, 0xFF, 0xFF, 0xFF, 0xFF, 0x03, 
  0x00, 0x00, 0x00, 0x20, 0x04, 0x00, 0x00, 0x00, 0x00, 0xFC, 0xFF, 0xFF, 
  0xFF, 0xFF, 0xFF, 0x01, 0x00, 0x00, 0x00, 0x60, 0x06, 0x00, 0x00, 0x00, 
  0x00, 0xF0, 0xFF, 0xFF, 0xFF, 0xFF, 0xFF, 0x00, 0x00, 0x00, 0x00, 0x60, 
  0x06, 0x00, 0x00, 0x00, 0x00, 0xC0, 0xFF, 0xFF, 0xFF, 0xFF, 0x7F, 0x00, 
  0x00, 0x00, 0x00, 0x62, 0x22, 0x00, 0x00, 0x00, 0x00, 0x80, 0xFF, 0xFF, 
  0xFF, 0xFF, 0x3F, 0x00, 0x00, 0x00, 0x00, 0x62, 0x22, 0x00, 0x00, 0x00, 
  0x00, 0x00, 0xFE, 0xFF, 0xFF, 0x7F, 0x1F, 0x00, 0x00, 0x00, 0x00, 0x42, 
  0x23, 0x00, 0x00, 0x00, 0x00, 0x00, 0xF8, 0xFF, 0xFF, 0xFF, 0x0F, 0x00, 
  0x00, 0x00, 0x00, 0x46, 0x23, 0x00, 0x00, 0x00, 0x00, 0x00, 0xF0, 0xFE, 
  0xFF, 0xFF, 0x0F, 0x00, 0x00, 0x00, 0x00, 0xC4, 0x03, 0x00, 0x00, 0x00, 
  0x00, 0x00, 0xF0, 0xFF, 0xFF, 0xFF, 0x03, 0x00, 0x00, 0x00, 0x00, 0xC4, 
  0x01, 0x00, 0x00, 0x00, 0x00, 0x00, 0xF0, 0xFF, 0xFF, 0xFF, 0x03, 0x00, 
  0x00, 0x00, 0x00, 0xC0, 0x01, 0x00, 0x00, 0x00, 0x00, 0x00, 0xF8, 0xFF, 
  0xFF, 0xFF, 0x05, 0x00, 0x00, 0x00, 0x00, 0x80, 0x23, 0x00, 0x00, 0x00, 
  0x00, 0x00, 0xF0, 0xFF, 0xFF, 0xFF, 0x07, 0x00, 0x00, 0x00, 0x00, 0xC0, 
  0x23, 0x00, 0x00, 0x00, 0x00, 0x00, 0x70, 0xF8, 0xFF, 0xFF, 0x0F, 0x00, 
  0x00, 0x00, 0x00, 0x84, 0x21, 0x00, 0x00, 0x00, 0x00, 0x00, 0x00, 0xFC, 
  0xFF, 0xFF, 0x0F, 0x00, 0x00, 0x00, 0x00, 0xC8, 0x23, 0x00, 0x00, 0x00, 
  0x00, 0x00, 0x00, 0xFF, 0xFF, 0xFF, 0x0F, 0x00, 0x00, 0x00, 0x00, 0x88, 
  0x21, 0x00, 0x00, 0x00, 0x00, 0x00, 0x80, 0xFF, 0xFF, 0xFF, 0x1F, 0x00, 
  0x00, 0x00, 0x00, 0x88, 0x03, 0x00, 0x00, 0x00, 0x00, 0x00, 0xC0, 0xFF, 
  0xFE, 0xFF, 0x1F, 0x00, 0x00, 0x00, 0x00, 0x80, 0x01, 0x00, 0x00, 0x00, 
  0x00, 0x00, 0xC0, 0xFF, 0xFF, 0xFF, 0x1F, 0x00, 0x00, 0x00, 0x00, 0xC0, 
  0x01, 0x00, 0x00, 0x00, 0x00, 0x00, 0x70, 0xFF, 0xFF, 0xFF, 0x3F, 0x00, 
  0x00, 0x00, 0x00, 0x80, 0x23, 0x00, 0x00, 0x00, 0x00, 0x00, 0x98, 0xFF, 
  0xFF, 0xFF, 0x3F, 0x00, 0x00, 0x00, 0x00, 0xC0, 0x11, 0x00, 0x00, 0x00, 
  0x00, 0x00, 0xDC, 0xFF, 0xFF, 0xFF, 0x3F, 0x00, 0x00, 0x00, 0x00, 0xC0, 
  0x03, 0x00, 0x00, 0x00, 0x00, 0x00, 0xE4, 0xFF, 0xF7, 0xFF, 0x7F, 0x00, 
  0x00, 0x00, 0x00, 0x84, 0x23, 0x00, 0x00, 0x00, 0x00, 0x00, 0xF6, 0xFF, 
  0xE7, 0xFF, 0x7F, 0x00, 0x00, 0x00, 0x00, 0xC4, 0x23, 0x00, 0x00, 0x00, 
  0x00, 0x00, 0xFB, 0xFF, 0xFB, 0xFF, 0x7F, 0x00, 0x00, 0x00, 0x00, 0xC4, 
  0x02, 0x00, 0x00, 0x00, 0x00, 0x80, 0xFF, 0xFF, 0xF9, 0xFF, 0xFF, 0x00, 
  0x00, 0x00, 0x00, 0xC4, 0x02, 0x00, 0x00, 0x00, 0xF0, 0x87, 0xFF, 0xFF, 
  0xF8, 0xFF, 0xFF, 0x00, 0x00, 0x00, 0x00, 0x40, 0x02, 0x00, 0x00, 0x00, 
  0xFC, 0xFF, 0xFD, 0x6F, 0xFC, 0xFF, 0xFF, 0x00, 0x00, 0x00, 0x00, 0x40, 
  0x06, 0x00, 0x00, 0x00, 0xFC, 0xF3, 0xFF, 0x3F, 0xFC, 0xFF, 0xFF, 0x00, 
  0x00, 0x00, 0x00, 0x60, 0x46, 0x00, 0x00, 0x00, 0xFE, 0xFF, 0xDD, 0x1F, 
  0x78, 0xFE, 0xFF, 0x01, 0x00, 0x00, 0x00, 0x62, 0x46, 0x00, 0x00, 0x00, 
  0xFF, 0xFF, 0xFF, 0x0F, 0x00, 0xFC, 0xFF, 0x01, 0x00, 0x00, 0x00, 0x62, 
  0x44, 0x00, 0x00, 0x80, 0xFF, 0xFF, 0xF7, 0x07, 0x00, 0xF8, 0xFE, 0x01, 
  0x00, 0x00, 0x00, 0x21, 0x44, 0x00, 0x00, 0x00, 0xFE, 0x7F, 0xF7, 0x03, 
  0x00, 0xF8, 0xFF, 0x03, 0x00, 0x00, 0x00, 0x21, 0x8C, 0x00, 0x00, 0x00, 
  0xF8, 0xFF, 0xFF, 0x00, 0x00, 0xF0, 0xFF, 0x03, 0x00, 0x00, 0x00, 0x31, 
  0x0C, 0x00, 0x00, 0x00, 0xC0, 0xFF, 0xFF, 0x00, 0x00, 0xE0, 0xFF, 0x03, 
  0x00, 0x00, 0x00, 0x10, 0x08, 0x00, 0x00, 0x00, 0x00, 0xFF, 0x7F, 0x00, 
  0x00, 0xE0, 0xFF, 0x07, 0x00, 0x00, 0x00, 0x10, 0x18, 0x01, 0x00, 0x00, 
  0x00, 0xFC, 0x3F, 0x00, 0x00, 0xC0, 0xFF, 0x07, 0x00, 0x00, 0x00, 0x18, 
  0x18, 0x03, 0x00, 0x00, 0x00, 0xF0, 0x3F, 0x00, 0x00, 0x80, 0xFF, 0x07, 
  0x00, 0x00, 0x80, 0x18, 0x10, 0x02, 0x00, 0x00, 0x00, 0xF0, 0x3F, 0x00, 
  0x00, 0x80, 0xFF, 0x0F, 0x00, 0x00, 0x80, 0x08, 0x10, 0x02, 0x00, 0x00, 
  0x00, 0xF0, 0x3F, 0x00, 0x00, 0x00, 0xFF, 0x0F, 0x00, 0x00, 0x40, 0x08, 
  0x30, 0x00, 0x00, 0x00, 0x00, 0xE0, 0x3F, 0x00, 0x00, 0x00, 0xFE, 0x0F, 
  0x00, 0x00, 0x40, 0x0C, 0x20, 0x00, 0x00, 0x00, 0x00, 0xE0, 0x3F, 0x00, 
  0x00, 0x00, 0xFE, 0x0F, 0x00, 0x00, 0x00, 0x04, 0x60, 0x00, 0x00, 0x00, 
  0x00, 0xC0, 0x7F, 0x00, 0x00, 0x00, 0xFC, 0x19, 0x00, 0x00, 0x00, 0x06, 
  0x40, 0x00, 0x00, 0x00, 0x00, 0xC0, 0x7F, 0x00, 0x00, 0x00, 0xFC, 0x0F, 
  0x00, 0x00, 0x00, 0x02, 0xC0, 0x08, 0x00, 0x00, 0x00, 0xC0, 0x7F, 0x00, 
  0x00, 0x00, 0xF8, 0x07, 0x00, 0x00, 0x10, 0x03, 0xC0, 0x10, 0x00, 0x00, 
  0x00, 0x80, 0x3F, 0x00, 0x00, 0x00, 0xF0, 0x03, 0x00, 0x00, 0x08, 0x01, 
  0x80, 0x11, 0x00, 0x00, 0x00, 0x80, 0x1F, 0x00, 0x00, 0x00, 0xF0, 0x00, 
  0x00, 0x00, 0x84, 0x01, 0x00, 0x21, 0x00, 0x00, 0x00, 0x80, 0x0F, 0x00, 
  0x00, 0x00, 0xE0, 0x00, 0x00, 0x00, 0x84, 0x00, 0x00, 0x03, 0x00, 0x00, 
  0x00, 0x80, 0x03, 0x00, 0x00, 0x00, 0x20, 0x00, 0x00, 0x00, 0xC2, 0x00, 
  0x00, 0x06, 0x00, 0x00, 0x00, 0x00, 0x03, 0x00, 0x00, 0x00, 0x00, 0x00, 
  0x00, 0x00, 0x60, 0x00, 0x00, 0x06, 0x00, 0x00, 0x00, 0x00, 0x00, 0x00, 
  0x00, 0x00, 0x00, 0x00, 0x00, 0x00, 0x20, 0x00, 0x00, 0x0C, 0x00, 0x00, 
  0x00, 0x00, 0x00, 0x00, 0x00, 0x00, 0x00, 0x00, 0x00, 0x80, 0x30, 0x00, 
  0x00, 0x08, 0x01, 0x00, 0x00, 0x00, 0x00, 0x00, 0x00, 0x00, 0x00, 0x00, 
  0x00, 0x40, 0x10, 0x00, 0x00, 0x18, 0x03, 0x00, 0x00, 0x00, 0x00, 0x00, 
  0x00, 0x00, 0x00, 0x00, 0x00, 0x60, 0x18, 0x00, 0x00, 0x30, 0x04, 0x00, 
  0x00, 0x00, 0x00, 0x00, 0x00, 0x00, 0x00, 0x00, 0x00, 0x20, 0x0C, 0x00, 
  0x00, 0x60, 0x00, 0x00, 0x00, 0x00, 0x00, 0x00, 0x00, 0x00, 0x00, 0x00, 
  0x00, 0x10, 0x06, 0x00, 0x00, 0x40, 0x00, 0x00, 0x00, 0x00, 0x00, 0x00, 
  0x00, 0x00, 0x00, 0x00, 0x00, 0x00, 0x03, 0x00, 0x00, 0xC0, 0x20, 0x00, 
  0x00, 0x00, 0x00, 0x00, 0x00, 0x00, 0x00, 0x00, 0x00, 0x04, 0x03, 0x00, 
  0x00, 0x80, 0x61, 0x00, 0x00, 0x00, 0x00, 0x00, 0x00, 0x00, 0x00, 0x00, 
  0x00, 0x84, 0x01, 0x00, 0x00, 0x00, 0xC3, 0x00, 0x00, 0x00, 0x00, 0x00, 
  0x00, 0x00, 0x00, 0x00, 0x00, 0xC2, 0x00, 0x00, 0x00, 0x00, 0x06, 0x01, 
  0x00, 0x00, 0x00, 0x00, 0x00, 0x00, 0x00, 0x00, 0x00, 0x61, 0x00, 0x00, 
  0x00, 0x00, 0x0C, 0x00, 0x00, 0x00, 0x00, 0x00, 0x00, 0x00, 0x00, 0x00, 
  0x00, 0x30, 0x00, 0x00, 0x00, 0x00, 0x18, 0x00, 0x00, 0x00, 0x00, 0x00, 
  0x00, 0x00, 0x00, 0x00, 0x00, 0x18, 0x00, 0x00, 0x00, 0x00, 0x30, 0x08, 
  0x00, 0x00, 0x00, 0x00, 0x00, 0x00, 0x00, 0x00, 0x18, 0x0C, 0x00, 0x00, 
  0x00, 0x00, 0x60, 0x30, 0x00, 0x00, 0x00, 0x00, 0x00, 0x00, 0x00, 0x00, 
  0x04, 0x06, 0x00, 0x00, 0x00, 0x00, 0xC0, 0x40, 0x00, 0x00, 0x00, 0x00, 
  0x00, 0x00, 0x00, 0x00, 0x86, 0x03, 0x00, 0x00, 0x00, 0x00, 0x80, 0x83, 
  0x00, 0x00, 0x00, 0x00, 0x00, 0x00, 0x00, 0x00, 0xC1, 0x01, 0x00, 0x00, 
  0x00, 0x00, 0x00, 0x06, 0x00, 0x00, 0x00, 0x00, 0x00, 0x00, 0x00, 0x00, 
  0x60, 0x00, 0x00, 0x00, 0x00, 0x00, 0x00, 0x0C, 0x04, 0x00, 0x00, 0x00, 
  0x00, 0x00, 0x00, 0x18, 0x30, 0x00, 0x00, 0x00, 0x00, 0x00, 0x00, 0x38, 
  0x38, 0x00, 0x00, 0x00, 0x00, 0x00, 0x00, 0x0C, 0x1C, 0x00, 0x00, 0x00, 
  0x00, 0x00, 0x00, 0xE0, 0x40, 0x00, 0x00, 0x00, 0x00, 0x00, 0x00, 0x02, 
  0x06, 0x00, 0x00, 0x00, 0x00, 0x00, 0x00, 0x80, 0x01, 0x06, 0x00, 0x00, 
  0x00, 0x00, 0x20, 0x80, 0x03, 0x00, 0x00, 0x00, 0x00, 0x00, 0x00, 0x00, 
  0x07, 0x18, 0x00, 0x00, 0x00, 0x00, 0x18, 0xE0, 0x00, 0x00, 0x00, 0x00, 
  0x00, 0x00, 0x00, 0x00, 0x1C, 0x00, 0x00, 0x00, 0x00, 0x00, 0x08, 0x38, 
  0x00, 0x00, 0x00, 0x00, 0x00, 0x00, 0x00, 0x00, 0x70, 0x00, 0x1E, 0x00, 
  0x00, 0x38, 0x00, 0x0E, 0x00, 0x00, 0x00, 0x00, 0x00, 0x00, 0x00, 0x00, 
  0xC0, 0x03, 0x10, 0x24, 0x3C, 0x04, 0xC0, 0x07, 0x00, 0x00, 0x00, 0x00, 
  0x00, 0x00, 0x00, 0x00, 0x00, 0x1F, 0x00, 0x18, 0x02, 0x00, 0xF8, 0x00, 
  0x00, 0x00, 0x00, 0x00, 0x00, 0x00, 0x00, 0x00, 0x00, 0xF8, 0x00, 0x00, 
  0x00, 0x00, 0x1E, 0x00, 0x00, 0x00, 0x00, 0x00, 0x00, 0x00, 0x00, 0x00, 
  0x00, 0xC0, 0x0F, 0x00, 0x00, 0xF8, 0x03, 0x00, 0x00, 0x00, 0x00, 0x00, 
  0x00, 0x00, 0x00, 0x00, 0x00, 0x00, 0xFE, 0xAB, 0xE9, 0x7F, 0x00, 0x00, 
  0x00, 0x00, 0x00, 0x00, 0x00, 0x00, 0x00, 0x00, 0x00, 0x00, 0x80, 0xFF, 
  0xFF, 0x01, 0x00, 0x00, 0x00, 0x00, 0x00, 0x00, };
